<svg width="64" height="64" viewBox="0 0 64 64" fill="none" xmlns="http://www.w3.org/2000/svg">
<path d="M62.9999 30.6899C62.9968 14.8417 50.2342 1.9968 34.4938 2C18.7539 2.0032 5.99682 14.854 6 30.7023C6.00273 43.186 14.0202 54.2355 25.8312 58.0326C25.944 58.0683 26.0612 58.0866 26.179 58.0862C26.4036 58.0857 26.6236 58.0253 26.8169 57.9104C27.0683 57.7607 27.256 57.5227 27.3442 57.2421L34.5416 34.2733C36.5092 34.2632 38.0959 32.6487 38.0855 30.6679C38.0754 28.6867 36.4724 27.0891 34.5047 27.0992C33.9755 27.1015 33.4532 27.2242 32.9776 27.4581L23.4694 17.883C22.9975 17.4244 22.2459 17.4376 21.7904 17.9123C21.3458 18.3761 21.3458 19.1103 21.7904 19.574L31.2936 29.1537C30.5644 30.6524 30.9813 32.4615 32.2925 33.4832L25.4348 55.3698C11.8821 50.3431 4.94252 35.2062 9.93487 21.5603C14.9272 7.91431 29.9607 0.927001 43.5133 5.95371C57.066 10.9804 64.0056 26.1178 59.0132 39.7633C56.5741 46.4301 51.5627 51.8217 45.1173 54.7134L44.3762 51.1991C44.2408 50.5532 43.6102 50.1403 42.9687 50.2772C42.7664 50.3207 42.5786 50.4164 42.424 50.5551L35.279 56.9779C34.7889 57.4169 34.7452 58.1727 35.1817 58.6662C35.3235 58.8264 35.5054 58.9454 35.7091 59.0109L44.8313 61.9424C45.4555 62.1443 46.1243 61.7987 46.3248 61.1697C46.3885 60.971 46.3989 60.7595 46.3562 60.5554L45.6279 57.107C56.1759 52.6296 63.0245 42.2155 62.9999 30.6899V30.6899ZM34.5002 29.4942C35.1558 29.4942 35.6877 30.0298 35.6877 30.6899C35.6877 31.3505 35.1558 31.8856 34.5002 31.8856C33.8442 31.8856 33.3127 31.3505 33.3127 30.6899C33.3127 30.0298 33.8442 29.4942 34.5002 29.4942ZM38.4114 57.3643L42.4786 53.7113L43.6011 59.037L38.4114 57.3643Z" fill="#2E2F42"/>
<path d="M30.709 6.37012V8.9209C30.709 9.62549 31.2798 10.1963 31.9844 10.1963C32.6885 10.1963 33.2598 9.62549 33.2598 8.9209V6.37012C33.2598 5.66602 32.6885 5.09473 31.9844 5.09473C31.2798 5.09473 30.709 5.66602 30.709 6.37012Z" fill="#4D5AE5"/>
<path d="M7.75195 29.3271C7.04736 29.3271 6.47656 29.8984 6.47656 30.6025C6.47656 31.3071 7.04736 31.8779 7.75195 31.8779H10.3027C11.0073 31.8779 11.5781 31.3071 11.5781 30.6025C11.5781 29.8984 11.0073 29.3271 10.3027 29.3271H7.75195Z" fill="#4D5AE5"/>
<path d="M56.2162 31.8779C56.9208 31.8779 57.4916 31.3071 57.4916 30.6025C57.4916 29.8984 56.9208 29.3271 56.2162 29.3271H53.6655C52.9614 29.3271 52.3901 29.8984 52.3901 30.6025C52.3901 31.3071 52.9614 31.8779 53.6655 31.8779H56.2162Z" fill="#4D5AE5"/>
</svg>
