<svg width="64" height="64" viewBox="0 0 64 64" fill="none" xmlns="http://www.w3.org/2000/svg">
<path d="M29.851 29.9292H31.9833V39.5242H29.851V29.9292Z" fill="#4D5AE5"/>
<path d="M38.3799 34.1936H40.5121V39.5242H38.3799V34.1936Z" fill="#4D5AE5"/>
<path d="M21.3222 37.392H23.4544V39.5242H21.3222V37.392Z" fill="#4D5AE5"/>
<path d="M14.9255 36.3258H17.0577V39.5241H14.9255V36.3258Z" fill="#4D5AE5"/>
<path d="M3.19832 60H54.3714C56.1377 60 57.5698 58.5996 57.5698 56.8724V52.7023C57.5698 50.9751 56.1377 49.5747 54.3714 49.5747H53.3053V23.5761L59.361 17.9664C60.7665 18.6439 62.4677 18.2326 63.3875 16.991C64.3079 15.75 64.1788 14.0411 63.0825 12.9456C61.9862 11.8502 60.2423 11.6868 58.9529 12.5588C57.664 13.4313 57.2059 15.0852 57.868 16.4744L53.3053 20.704V18.2988C53.3053 16.5716 51.8733 15.1712 50.107 15.1712H7.46275C5.69649 15.1712 4.26443 16.5716 4.26443 18.2988V49.5747H3.19832C1.43206 49.5747 0 50.9751 0 52.7023V56.8724C0 58.5996 1.43206 60 3.19832 60ZM60.7681 14.1287C61.3568 14.1287 61.8342 14.5955 61.8342 15.1712C61.8342 15.7469 61.3568 16.2137 60.7681 16.2137C60.1793 16.2137 59.702 15.7469 59.702 15.1712C59.702 14.5955 60.1793 14.1287 60.7681 14.1287ZM6.39664 18.2988C6.39664 17.723 6.87399 17.2563 7.46275 17.2563H50.107C50.6958 17.2563 51.1731 17.723 51.1731 18.2988V22.6771L49.0409 24.6583V20.3838C49.0409 19.8081 48.5635 19.3413 47.9748 19.3413H9.59496C9.00621 19.3413 8.52885 19.8081 8.52885 20.3838V46.4471C8.52885 47.0228 9.00621 47.4896 9.59496 47.4896H47.9748C48.5635 47.4896 49.0409 47.0228 49.0409 46.4471V27.5263L51.1731 25.5507V49.5747H6.39664V18.2988ZM15.9916 31.8517C14.5491 31.8476 13.2826 32.7873 12.899 34.147C12.5153 35.5066 13.1093 36.9488 14.3498 37.6686C15.5897 38.3884 17.1696 38.2077 18.2061 37.2267L21.9119 39.045C22.3424 39.2558 22.8646 39.157 23.1847 38.8053L31.0623 30.1387L38.8062 35.8131C39.2216 36.1175 39.8015 36.0849 40.1784 35.7362L46.9087 29.5019V45.4046H10.6611V21.4264H46.9087V26.6294L39.3658 33.6145L31.5569 27.8898C31.1133 27.565 30.4892 27.6261 30.1206 28.0308L22.1347 36.8174L19.1493 35.3575C19.1712 35.2323 19.1847 35.106 19.1899 34.9793C19.1899 33.2521 17.7579 31.8517 15.9916 31.8517ZM17.0577 34.9793C17.0577 35.555 16.5804 36.0218 15.9916 36.0218C15.4028 36.0218 14.9255 35.555 14.9255 34.9793C14.9255 34.4035 15.4028 33.9367 15.9916 33.9367C16.5804 33.9367 17.0577 34.4035 17.0577 34.9793ZM23.4543 51.6598H34.1154V52.7023C34.1154 53.278 33.6381 53.7448 33.0493 53.7448H24.5205C23.9317 53.7448 23.4543 53.278 23.4543 52.7023V51.6598ZM2.13221 52.7023C2.13221 52.1266 2.60957 51.6598 3.19832 51.6598H21.3221V52.7023C21.3221 54.4295 22.7542 55.8299 24.5205 55.8299H33.0493C34.8156 55.8299 36.2476 54.4295 36.2476 52.7023V51.6598H54.3714C54.9602 51.6598 55.4375 52.1266 55.4375 52.7023V56.8724C55.4375 57.4481 54.9602 57.9149 54.3714 57.9149H3.19832C2.60957 57.9149 2.13221 57.4481 2.13221 56.8724V52.7023Z" fill="#2E2F42"/>
</svg>
